<?xml version="1.0" encoding="UTF-8" standalone="no"?>
<svg 
    role="img" 
    xmlns="http://www.w3.org/2000/svg" 
    width="1000mm"
    height="1000mm"
    viewBox="0 0 1000 1000"
    style="max-width:1.6em; height: auto;">
    
    <path 
        id="path" 
        style="opacity:1;vector-effect:none;fill:#ffffff;fill-opacity:1;"
        d="M 500 0C 224 0 0 224 0 500C 0 776 224 1000 500 1000C 776 1000 1000 776 1000 500C 1000 224 776 0 500 0C 500 0 500 0 500 0M 500 50C 749 50 950 251 950 500C 950 749 749 950 500 950C 251 950 50 749 50 500C 50 251 251 50 500 50C 500 50 500 50 500 50 M 809 243C 813 275 776 302 747 285C 711 267 746 233 739 210C 703 191 661 221 646 254C 617 310 610 373 598 433C 631 438 670 438 696 415C 698 392 671 357 710 346C 756 334 763 403 730 423C 693 455 641 460 595 454C 575 560 559 673 492 761C 451 818 385 869 311 860C 274 857 239 822 251 783C 261 748 314 733 336 765C 357 791 331 813 317 831C 341 859 385 820 401 797C 444 733 453 655 469 581C 478 527 489 472 505 419C 468 390 435 348 383 346C 347 341 316 386 338 417C 368 456 414 490 414 544C 413 610 342 653 281 645C 232 640 175 614 166 561C 155 523 205 491 231 523C 254 547 226 575 226 600C 251 636 320 628 329 582C 335 550 304 531 286 509C 250 474 235 413 267 370C 303 316 381 305 436 336C 465 351 487 377 512 398C 539 321 581 240 656 201C 700 180 761 175 798 213C 805 221 809 232 809 243C 809 243 809 243 809 243"
        transform="">
    </path>    
</svg>